<svg xmlns="http://www.w3.org/2000/svg" viewBox="0 0 2400 1350" preserveAspectRatio="xMidYMid slice"><defs><radialGradient id="haze" cx="50%" cy="35%" r="70%"><stop offset="0%" stop-color="#12182a" stop-opacity="0.55"/><stop offset="55%" stop-color="#060608" stop-opacity="0"/><stop offset="100%" stop-color="#060608"/></radialGradient><radialGradient id="glow" cx="78%" cy="88%" r="45%"><stop offset="0%" stop-color="#2a1018" stop-opacity="0.35"/><stop offset="100%" stop-color="#060608" stop-opacity="0"/></radialGradient></defs><rect width="100%" height="100%" fill="#060608"/><rect width="100%" height="100%" fill="url(#haze)"/><rect width="100%" height="100%" fill="url(#glow)"/><circle cx="573.3" cy="860.6" r="1.08" fill="#e8eefc" fill-opacity="0.462"/><circle cx="1339.0" cy="1051.6" r="1.16" fill="#e8eefc" fill-opacity="0.123"/><circle cx="1254.3" cy="911.1" r="1.37" fill="#e8eefc" fill-opacity="0.173"/><circle cx="2350.0" cy="1027.3" r="1.25" fill="#e8eefc" fill-opacity="0.343"/><circle cx="720.6" cy="755.1" r="1.55" fill="#e8eefc" fill-opacity="0.278"/><circle cx="1786.2" cy="102.7" r="0.89" fill="#e8eefc" fill-opacity="0.197"/><circle cx="1777.6" cy="873.3" r="1.39" fill="#e8eefc" fill-opacity="0.195"/><circle cx="961.1" cy="367.8" r="1.46" fill="#e8eefc" fill-opacity="0.164"/><circle cx="1459.1" cy="201.1" r="1.53" fill="#e8eefc" fill-opacity="0.417"/><circle cx="861.0" cy="91.4" r="1.30" fill="#e8eefc" fill-opacity="0.303"/><circle cx="491.3" cy="996.6" r="0.80" fill="#e8eefc" fill-opacity="0.418"/><circle cx="455.8" cy="1240.0" r="0.44" fill="#e8eefc" fill-opacity="0.499"/><circle cx="1254.8" cy="217.3" r="0.95" fill="#e8eefc" fill-opacity="0.392"/><circle cx="638.7" cy="524.3" r="1.00" fill="#e8eefc" fill-opacity="0.211"/><circle cx="1914.6" cy="1287.4" r="0.57" fill="#e8eefc" fill-opacity="0.108"/><circle cx="579.3" cy="1293.2" r="0.67" fill="#e8eefc" fill-opacity="0.285"/><circle cx="2064.7" cy="139.2" r="0.79" fill="#e8eefc" fill-opacity="0.399"/><circle cx="8.0" cy="1222.2" r="0.71" fill="#e8eefc" fill-opacity="0.474"/><circle cx="1809.1" cy="1178.7" r="1.13" fill="#e8eefc" fill-opacity="0.184"/><circle cx="254.9" cy="849.9" r="1.09" fill="#e8eefc" fill-opacity="0.288"/><circle cx="1765.5" cy="324.4" r="1.34" fill="#e8eefc" fill-opacity="0.102"/><circle cx="1188.3" cy="1322.9" r="1.18" fill="#e8eefc" fill-opacity="0.348"/><circle cx="1620.0" cy="421.9" r="0.61" fill="#e8eefc" fill-opacity="0.146"/><circle cx="2295.4" cy="781.5" r="0.73" fill="#e8eefc" fill-opacity="0.267"/><circle cx="2013.7" cy="669.1" r="0.75" fill="#e8eefc" fill-opacity="0.100"/><circle cx="2211.6" cy="1110.5" r="0.57" fill="#e8eefc" fill-opacity="0.096"/><circle cx="227.2" cy="460.1" r="0.77" fill="#e8eefc" fill-opacity="0.263"/><circle cx="1858.1" cy="640.7" r="0.44" fill="#e8eefc" fill-opacity="0.318"/><circle cx="521.5" cy="1016.5" r="0.78" fill="#e8eefc" fill-opacity="0.348"/><circle cx="14.4" cy="961.9" r="1.16" fill="#e8eefc" fill-opacity="0.193"/><circle cx="2070.6" cy="791.5" r="0.69" fill="#e8eefc" fill-opacity="0.509"/><circle cx="408.5" cy="376.3" r="1.19" fill="#e8eefc" fill-opacity="0.235"/><circle cx="986.8" cy="768.2" r="1.47" fill="#e8eefc" fill-opacity="0.497"/><circle cx="1195.8" cy="388.7" r="1.08" fill="#e8eefc" fill-opacity="0.497"/><circle cx="1161.9" cy="1076.5" r="0.68" fill="#e8eefc" fill-opacity="0.336"/><circle cx="1039.5" cy="357.4" r="1.27" fill="#e8eefc" fill-opacity="0.396"/><circle cx="1825.2" cy="1104.2" r="1.37" fill="#e8eefc" fill-opacity="0.419"/><circle cx="2324.6" cy="1313.2" r="1.20" fill="#e8eefc" fill-opacity="0.523"/><circle cx="2327.1" cy="233.3" r="1.09" fill="#e8eefc" fill-opacity="0.358"/><circle cx="591.6" cy="1247.0" r="0.51" fill="#e8eefc" fill-opacity="0.398"/><circle cx="345.5" cy="627.3" r="0.68" fill="#e8eefc" fill-opacity="0.357"/><circle cx="548.0" cy="402.6" r="0.78" fill="#e8eefc" fill-opacity="0.285"/><circle cx="1585.0" cy="271.0" r="0.43" fill="#e8eefc" fill-opacity="0.263"/><circle cx="2367.1" cy="272.7" r="1.10" fill="#e8eefc" fill-opacity="0.240"/><circle cx="1902.3" cy="734.6" r="1.37" fill="#e8eefc" fill-opacity="0.366"/><circle cx="1014.1" cy="23.6" r="1.57" fill="#e8eefc" fill-opacity="0.508"/><circle cx="1318.6" cy="20.9" r="0.53" fill="#e8eefc" fill-opacity="0.503"/><circle cx="1224.7" cy="604.5" r="1.58" fill="#e8eefc" fill-opacity="0.082"/><circle cx="1226.5" cy="396.9" r="0.85" fill="#e8eefc" fill-opacity="0.441"/><circle cx="1360.1" cy="130.1" r="0.61" fill="#e8eefc" fill-opacity="0.423"/><circle cx="831.4" cy="595.6" r="1.38" fill="#e8eefc" fill-opacity="0.081"/><circle cx="1519.5" cy="790.7" r="1.25" fill="#e8eefc" fill-opacity="0.296"/><circle cx="1074.1" cy="212.3" r="1.10" fill="#e8eefc" fill-opacity="0.530"/><circle cx="1814.1" cy="121.0" r="0.64" fill="#e8eefc" fill-opacity="0.485"/><circle cx="940.6" cy="801.6" r="0.73" fill="#e8eefc" fill-opacity="0.544"/><circle cx="260.0" cy="618.0" r="1.38" fill="#e8eefc" fill-opacity="0.468"/><circle cx="1694.1" cy="1003.3" r="1.38" fill="#e8eefc" fill-opacity="0.149"/><circle cx="1524.9" cy="798.0" r="0.69" fill="#e8eefc" fill-opacity="0.421"/><circle cx="867.2" cy="1076.4" r="0.96" fill="#e8eefc" fill-opacity="0.500"/><circle cx="622.1" cy="839.9" r="0.53" fill="#e8eefc" fill-opacity="0.185"/><circle cx="358.2" cy="859.2" r="0.71" fill="#e8eefc" fill-opacity="0.525"/><circle cx="1820.4" cy="392.3" r="1.05" fill="#e8eefc" fill-opacity="0.192"/><circle cx="1291.9" cy="750.2" r="1.37" fill="#e8eefc" fill-opacity="0.435"/><circle cx="2273.8" cy="113.4" r="0.96" fill="#e8eefc" fill-opacity="0.309"/><circle cx="266.9" cy="759.9" r="0.68" fill="#e8eefc" fill-opacity="0.119"/><circle cx="416.1" cy="97.5" r="1.38" fill="#e8eefc" fill-opacity="0.109"/><circle cx="1327.3" cy="791.2" r="0.82" fill="#e8eefc" fill-opacity="0.115"/><circle cx="840.4" cy="798.4" r="0.84" fill="#e8eefc" fill-opacity="0.306"/><circle cx="853.7" cy="757.5" r="1.19" fill="#e8eefc" fill-opacity="0.200"/><circle cx="2159.3" cy="781.3" r="0.91" fill="#e8eefc" fill-opacity="0.143"/><circle cx="2187.0" cy="1021.7" r="0.62" fill="#e8eefc" fill-opacity="0.101"/><circle cx="169.5" cy="583.3" r="1.31" fill="#e8eefc" fill-opacity="0.219"/><circle cx="470.7" cy="24.3" r="0.93" fill="#e8eefc" fill-opacity="0.337"/><circle cx="1775.1" cy="272.3" r="0.51" fill="#e8eefc" fill-opacity="0.401"/><circle cx="2062.1" cy="1117.4" r="0.71" fill="#e8eefc" fill-opacity="0.154"/><circle cx="1465.5" cy="619.3" r="1.10" fill="#e8eefc" fill-opacity="0.169"/><circle cx="1251.0" cy="1006.5" r="0.94" fill="#e8eefc" fill-opacity="0.454"/><circle cx="1448.2" cy="984.3" r="1.05" fill="#e8eefc" fill-opacity="0.315"/><circle cx="631.8" cy="56.0" r="1.06" fill="#e8eefc" fill-opacity="0.402"/><circle cx="1722.7" cy="265.5" r="1.47" fill="#e8eefc" fill-opacity="0.140"/><circle cx="1185.5" cy="1216.1" r="0.46" fill="#e8eefc" fill-opacity="0.496"/><circle cx="1171.0" cy="887.9" r="1.41" fill="#e8eefc" fill-opacity="0.445"/><circle cx="557.8" cy="1247.3" r="0.44" fill="#e8eefc" fill-opacity="0.460"/><circle cx="154.1" cy="664.7" r="0.65" fill="#e8eefc" fill-opacity="0.362"/><circle cx="1743.5" cy="70.0" r="0.93" fill="#e8eefc" fill-opacity="0.530"/><circle cx="1364.5" cy="920.3" r="1.42" fill="#e8eefc" fill-opacity="0.338"/><circle cx="351.3" cy="240.0" r="1.57" fill="#e8eefc" fill-opacity="0.454"/><circle cx="1666.7" cy="1155.6" r="0.73" fill="#e8eefc" fill-opacity="0.488"/><circle cx="1705.9" cy="1320.5" r="1.33" fill="#e8eefc" fill-opacity="0.080"/><circle cx="324.5" cy="681.1" r="0.80" fill="#e8eefc" fill-opacity="0.161"/><circle cx="258.4" cy="1082.9" r="1.10" fill="#e8eefc" fill-opacity="0.486"/><circle cx="1214.2" cy="1010.6" r="0.94" fill="#e8eefc" fill-opacity="0.143"/><circle cx="2247.8" cy="631.5" r="1.10" fill="#e8eefc" fill-opacity="0.423"/><circle cx="1365.1" cy="956.0" r="0.85" fill="#e8eefc" fill-opacity="0.126"/><circle cx="417.8" cy="136.6" r="0.65" fill="#e8eefc" fill-opacity="0.270"/><circle cx="2159.8" cy="691.2" r="1.56" fill="#e8eefc" fill-opacity="0.086"/><circle cx="1117.0" cy="1057.4" r="0.77" fill="#e8eefc" fill-opacity="0.294"/><circle cx="1343.8" cy="1152.1" r="0.72" fill="#e8eefc" fill-opacity="0.151"/><circle cx="2225.0" cy="592.6" r="1.26" fill="#e8eefc" fill-opacity="0.486"/><circle cx="1773.0" cy="1274.1" r="1.49" fill="#e8eefc" fill-opacity="0.541"/><circle cx="2253.3" cy="932.4" r="1.48" fill="#e8eefc" fill-opacity="0.356"/><circle cx="1535.9" cy="698.1" r="0.96" fill="#e8eefc" fill-opacity="0.296"/><circle cx="2200.4" cy="334.0" r="1.31" fill="#e8eefc" fill-opacity="0.131"/><circle cx="610.5" cy="968.1" r="1.26" fill="#e8eefc" fill-opacity="0.477"/><circle cx="2270.5" cy="1278.3" r="0.51" fill="#e8eefc" fill-opacity="0.271"/><circle cx="594.6" cy="248.7" r="0.74" fill="#e8eefc" fill-opacity="0.225"/><circle cx="913.8" cy="114.0" r="1.39" fill="#e8eefc" fill-opacity="0.432"/><circle cx="774.5" cy="1068.0" r="1.31" fill="#e8eefc" fill-opacity="0.504"/><circle cx="905.0" cy="728.3" r="0.40" fill="#e8eefc" fill-opacity="0.141"/><circle cx="583.7" cy="626.3" r="0.40" fill="#e8eefc" fill-opacity="0.427"/><circle cx="1069.3" cy="408.5" r="0.49" fill="#e8eefc" fill-opacity="0.101"/><circle cx="496.7" cy="359.4" r="0.79" fill="#e8eefc" fill-opacity="0.490"/><circle cx="1700.4" cy="659.8" r="1.09" fill="#e8eefc" fill-opacity="0.114"/><circle cx="1131.8" cy="189.6" r="1.09" fill="#e8eefc" fill-opacity="0.503"/><circle cx="535.7" cy="551.8" r="1.35" fill="#e8eefc" fill-opacity="0.086"/><circle cx="2380.5" cy="33.1" r="1.47" fill="#e8eefc" fill-opacity="0.523"/><circle cx="184.3" cy="203.3" r="0.88" fill="#e8eefc" fill-opacity="0.258"/><circle cx="469.6" cy="1084.8" r="0.70" fill="#e8eefc" fill-opacity="0.324"/><circle cx="207.2" cy="1268.3" r="0.75" fill="#e8eefc" fill-opacity="0.448"/><circle cx="1551.2" cy="414.3" r="0.96" fill="#e8eefc" fill-opacity="0.444"/><circle cx="707.9" cy="56.6" r="0.56" fill="#e8eefc" fill-opacity="0.276"/><circle cx="616.7" cy="195.3" r="1.34" fill="#e8eefc" fill-opacity="0.412"/><circle cx="662.1" cy="79.4" r="0.85" fill="#e8eefc" fill-opacity="0.540"/><circle cx="1256.1" cy="467.1" r="1.19" fill="#e8eefc" fill-opacity="0.173"/><circle cx="496.2" cy="242.5" r="1.44" fill="#e8eefc" fill-opacity="0.151"/><circle cx="1504.5" cy="896.2" r="0.40" fill="#e8eefc" fill-opacity="0.264"/><circle cx="2196.1" cy="120.7" r="1.27" fill="#e8eefc" fill-opacity="0.450"/><circle cx="482.4" cy="391.8" r="1.12" fill="#e8eefc" fill-opacity="0.478"/><circle cx="756.2" cy="326.3" r="1.57" fill="#e8eefc" fill-opacity="0.476"/><circle cx="267.2" cy="55.9" r="1.49" fill="#e8eefc" fill-opacity="0.128"/><circle cx="1699.5" cy="955.4" r="0.65" fill="#e8eefc" fill-opacity="0.417"/><circle cx="2044.2" cy="608.6" r="0.73" fill="#e8eefc" fill-opacity="0.385"/><circle cx="647.8" cy="287.3" r="1.28" fill="#e8eefc" fill-opacity="0.306"/><circle cx="2129.2" cy="725.2" r="1.40" fill="#e8eefc" fill-opacity="0.297"/><circle cx="1545.5" cy="261.6" r="1.52" fill="#e8eefc" fill-opacity="0.388"/><circle cx="318.8" cy="399.9" r="0.40" fill="#e8eefc" fill-opacity="0.484"/><circle cx="762.8" cy="75.7" r="1.02" fill="#e8eefc" fill-opacity="0.495"/><circle cx="2252.8" cy="1303.8" r="1.00" fill="#e8eefc" fill-opacity="0.367"/><circle cx="1591.3" cy="277.5" r="0.90" fill="#e8eefc" fill-opacity="0.114"/><circle cx="374.8" cy="251.4" r="1.22" fill="#e8eefc" fill-opacity="0.500"/><circle cx="1176.8" cy="1127.2" r="1.53" fill="#e8eefc" fill-opacity="0.241"/><circle cx="1176.4" cy="665.7" r="0.65" fill="#e8eefc" fill-opacity="0.084"/><circle cx="635.7" cy="665.9" r="1.58" fill="#e8eefc" fill-opacity="0.363"/><circle cx="1998.3" cy="55.0" r="1.37" fill="#e8eefc" fill-opacity="0.336"/><circle cx="1410.2" cy="1028.6" r="1.28" fill="#e8eefc" fill-opacity="0.515"/><circle cx="362.9" cy="384.6" r="1.43" fill="#e8eefc" fill-opacity="0.486"/><circle cx="1698.3" cy="719.1" r="0.85" fill="#e8eefc" fill-opacity="0.516"/><circle cx="431.3" cy="349.9" r="0.61" fill="#e8eefc" fill-opacity="0.416"/><circle cx="1703.2" cy="387.2" r="1.46" fill="#e8eefc" fill-opacity="0.353"/><circle cx="17.1" cy="1118.4" r="1.16" fill="#e8eefc" fill-opacity="0.242"/><circle cx="1665.4" cy="775.9" r="0.86" fill="#e8eefc" fill-opacity="0.124"/><circle cx="2101.7" cy="35.2" r="1.59" fill="#e8eefc" fill-opacity="0.452"/><circle cx="1255.6" cy="279.6" r="0.54" fill="#e8eefc" fill-opacity="0.420"/><circle cx="1684.3" cy="26.5" r="1.21" fill="#e8eefc" fill-opacity="0.457"/><circle cx="1508.9" cy="1212.5" r="1.40" fill="#e8eefc" fill-opacity="0.178"/><circle cx="460.0" cy="655.2" r="1.02" fill="#e8eefc" fill-opacity="0.255"/><circle cx="2047.9" cy="1198.5" r="1.06" fill="#e8eefc" fill-opacity="0.304"/><circle cx="1490.6" cy="276.3" r="1.20" fill="#e8eefc" fill-opacity="0.539"/><circle cx="1460.5" cy="378.1" r="1.55" fill="#e8eefc" fill-opacity="0.489"/><circle cx="7.4" cy="189.7" r="0.77" fill="#e8eefc" fill-opacity="0.095"/><circle cx="588.1" cy="857.4" r="1.26" fill="#e8eefc" fill-opacity="0.150"/><circle cx="1252.5" cy="856.3" r="0.86" fill="#e8eefc" fill-opacity="0.199"/><circle cx="1734.4" cy="603.1" r="0.69" fill="#e8eefc" fill-opacity="0.258"/><circle cx="485.8" cy="25.3" r="1.39" fill="#e8eefc" fill-opacity="0.315"/><circle cx="857.6" cy="708.8" r="0.59" fill="#e8eefc" fill-opacity="0.335"/><circle cx="1557.5" cy="906.3" r="1.02" fill="#e8eefc" fill-opacity="0.436"/><circle cx="1842.1" cy="836.1" r="1.45" fill="#e8eefc" fill-opacity="0.352"/><circle cx="1934.6" cy="1214.5" r="0.85" fill="#e8eefc" fill-opacity="0.170"/><circle cx="1065.1" cy="1304.3" r="1.17" fill="#e8eefc" fill-opacity="0.166"/><circle cx="455.5" cy="1230.3" r="0.51" fill="#e8eefc" fill-opacity="0.422"/><circle cx="503.7" cy="217.1" r="0.76" fill="#e8eefc" fill-opacity="0.109"/><circle cx="835.9" cy="1024.7" r="1.25" fill="#e8eefc" fill-opacity="0.110"/><circle cx="932.7" cy="588.0" r="0.79" fill="#e8eefc" fill-opacity="0.233"/><circle cx="581.3" cy="465.7" r="1.42" fill="#e8eefc" fill-opacity="0.450"/><circle cx="2339.9" cy="698.8" r="1.21" fill="#e8eefc" fill-opacity="0.141"/><circle cx="1584.1" cy="848.8" r="0.75" fill="#e8eefc" fill-opacity="0.469"/><circle cx="564.0" cy="643.2" r="0.69" fill="#e8eefc" fill-opacity="0.421"/><circle cx="278.8" cy="941.5" r="1.30" fill="#e8eefc" fill-opacity="0.368"/><circle cx="1963.0" cy="843.5" r="0.70" fill="#e8eefc" fill-opacity="0.524"/><circle cx="2043.2" cy="998.5" r="1.47" fill="#e8eefc" fill-opacity="0.236"/><circle cx="2160.0" cy="436.3" r="1.39" fill="#e8eefc" fill-opacity="0.239"/><circle cx="697.9" cy="786.1" r="0.45" fill="#e8eefc" fill-opacity="0.308"/><circle cx="1651.9" cy="62.7" r="0.63" fill="#e8eefc" fill-opacity="0.107"/><circle cx="1477.4" cy="258.4" r="1.25" fill="#e8eefc" fill-opacity="0.303"/><circle cx="251.0" cy="439.3" r="0.46" fill="#e8eefc" fill-opacity="0.262"/><circle cx="226.9" cy="385.9" r="1.45" fill="#e8eefc" fill-opacity="0.092"/><circle cx="1579.0" cy="340.7" r="0.81" fill="#e8eefc" fill-opacity="0.224"/><circle cx="1762.9" cy="18.1" r="1.45" fill="#e8eefc" fill-opacity="0.182"/><circle cx="1277.4" cy="222.4" r="0.59" fill="#e8eefc" fill-opacity="0.099"/><circle cx="1284.9" cy="1058.0" r="1.42" fill="#e8eefc" fill-opacity="0.497"/><circle cx="1082.9" cy="688.2" r="0.54" fill="#e8eefc" fill-opacity="0.130"/><circle cx="1464.3" cy="131.9" r="0.68" fill="#e8eefc" fill-opacity="0.349"/><circle cx="2064.9" cy="1264.1" r="1.18" fill="#e8eefc" fill-opacity="0.380"/><circle cx="1554.3" cy="818.6" r="0.62" fill="#e8eefc" fill-opacity="0.524"/><circle cx="1562.8" cy="747.8" r="0.91" fill="#e8eefc" fill-opacity="0.341"/><circle cx="1143.6" cy="658.1" r="0.51" fill="#e8eefc" fill-opacity="0.217"/><circle cx="1068.4" cy="639.9" r="1.20" fill="#e8eefc" fill-opacity="0.123"/><circle cx="960.9" cy="1232.4" r="0.78" fill="#e8eefc" fill-opacity="0.505"/><circle cx="463.6" cy="555.4" r="1.50" fill="#e8eefc" fill-opacity="0.466"/><circle cx="1616.1" cy="169.2" r="1.25" fill="#e8eefc" fill-opacity="0.341"/><circle cx="273.5" cy="460.1" r="1.10" fill="#e8eefc" fill-opacity="0.406"/><circle cx="841.8" cy="1125.6" r="1.26" fill="#e8eefc" fill-opacity="0.520"/><circle cx="561.5" cy="1090.3" r="0.75" fill="#e8eefc" fill-opacity="0.195"/><circle cx="288.6" cy="365.8" r="0.53" fill="#e8eefc" fill-opacity="0.114"/><circle cx="774.3" cy="392.2" r="1.27" fill="#e8eefc" fill-opacity="0.174"/><circle cx="764.5" cy="91.1" r="1.50" fill="#e8eefc" fill-opacity="0.100"/><circle cx="2277.1" cy="1106.9" r="1.29" fill="#e8eefc" fill-opacity="0.151"/><circle cx="472.1" cy="159.9" r="0.96" fill="#e8eefc" fill-opacity="0.386"/><circle cx="1137.9" cy="263.8" r="1.02" fill="#e8eefc" fill-opacity="0.301"/><circle cx="592.6" cy="1030.7" r="0.50" fill="#e8eefc" fill-opacity="0.539"/><circle cx="1458.3" cy="806.3" r="1.16" fill="#e8eefc" fill-opacity="0.328"/><circle cx="745.1" cy="318.7" r="0.64" fill="#e8eefc" fill-opacity="0.370"/><circle cx="2164.9" cy="559.2" r="0.42" fill="#e8eefc" fill-opacity="0.258"/><circle cx="2249.6" cy="1347.5" r="1.41" fill="#e8eefc" fill-opacity="0.468"/><circle cx="1904.8" cy="736.7" r="1.30" fill="#e8eefc" fill-opacity="0.300"/><circle cx="1404.1" cy="1130.5" r="0.70" fill="#e8eefc" fill-opacity="0.297"/><circle cx="359.1" cy="1055.4" r="1.25" fill="#e8eefc" fill-opacity="0.528"/><circle cx="1633.1" cy="1192.3" r="1.54" fill="#e8eefc" fill-opacity="0.213"/><circle cx="2177.3" cy="471.8" r="0.81" fill="#e8eefc" fill-opacity="0.397"/><circle cx="119.1" cy="362.5" r="0.83" fill="#e8eefc" fill-opacity="0.096"/><circle cx="2192.3" cy="747.3" r="0.90" fill="#e8eefc" fill-opacity="0.169"/><circle cx="1124.3" cy="316.3" r="1.57" fill="#e8eefc" fill-opacity="0.491"/><circle cx="35.3" cy="745.6" r="0.44" fill="#e8eefc" fill-opacity="0.106"/><circle cx="1036.6" cy="187.9" r="0.44" fill="#e8eefc" fill-opacity="0.264"/><circle cx="301.2" cy="812.3" r="0.45" fill="#e8eefc" fill-opacity="0.391"/><circle cx="1906.6" cy="1200.9" r="1.25" fill="#e8eefc" fill-opacity="0.233"/><circle cx="1886.8" cy="1085.2" r="0.52" fill="#e8eefc" fill-opacity="0.431"/><circle cx="1971.8" cy="222.0" r="0.56" fill="#e8eefc" fill-opacity="0.086"/><circle cx="961.0" cy="371.1" r="1.46" fill="#e8eefc" fill-opacity="0.545"/><circle cx="1832.3" cy="519.5" r="1.06" fill="#e8eefc" fill-opacity="0.261"/><circle cx="1730.5" cy="492.2" r="1.51" fill="#e8eefc" fill-opacity="0.126"/><circle cx="1654.3" cy="790.5" r="0.97" fill="#e8eefc" fill-opacity="0.488"/><circle cx="433.6" cy="394.3" r="0.49" fill="#e8eefc" fill-opacity="0.511"/><circle cx="732.9" cy="1097.9" r="1.40" fill="#e8eefc" fill-opacity="0.317"/><circle cx="973.0" cy="1335.6" r="1.14" fill="#e8eefc" fill-opacity="0.221"/><circle cx="313.7" cy="508.3" r="1.57" fill="#e8eefc" fill-opacity="0.391"/><circle cx="1772.7" cy="372.4" r="1.20" fill="#e8eefc" fill-opacity="0.234"/><circle cx="1454.4" cy="428.6" r="0.89" fill="#e8eefc" fill-opacity="0.108"/><circle cx="1842.0" cy="484.6" r="1.23" fill="#e8eefc" fill-opacity="0.372"/><circle cx="998.8" cy="1216.9" r="1.21" fill="#e8eefc" fill-opacity="0.415"/><circle cx="1406.4" cy="473.7" r="0.68" fill="#e8eefc" fill-opacity="0.475"/><circle cx="327.2" cy="343.9" r="0.73" fill="#e8eefc" fill-opacity="0.392"/><circle cx="1417.3" cy="76.5" r="0.77" fill="#e8eefc" fill-opacity="0.501"/><circle cx="490.2" cy="811.3" r="0.69" fill="#e8eefc" fill-opacity="0.424"/><circle cx="1331.3" cy="54.7" r="0.85" fill="#e8eefc" fill-opacity="0.091"/><circle cx="23.0" cy="1319.3" r="0.44" fill="#e8eefc" fill-opacity="0.308"/><circle cx="950.3" cy="1340.7" r="0.94" fill="#e8eefc" fill-opacity="0.371"/><circle cx="1290.1" cy="564.9" r="1.12" fill="#e8eefc" fill-opacity="0.370"/><circle cx="87.2" cy="938.4" r="1.15" fill="#e8eefc" fill-opacity="0.429"/><circle cx="1471.7" cy="442.0" r="0.71" fill="#e8eefc" fill-opacity="0.460"/><circle cx="94.8" cy="516.0" r="1.09" fill="#e8eefc" fill-opacity="0.344"/><circle cx="1418.8" cy="343.6" r="1.37" fill="#e8eefc" fill-opacity="0.231"/><circle cx="1881.9" cy="660.4" r="0.61" fill="#e8eefc" fill-opacity="0.111"/><circle cx="1694.0" cy="870.9" r="0.58" fill="#e8eefc" fill-opacity="0.301"/><circle cx="1921.3" cy="1149.9" r="0.94" fill="#e8eefc" fill-opacity="0.516"/><circle cx="377.9" cy="633.8" r="0.82" fill="#e8eefc" fill-opacity="0.430"/><circle cx="1203.7" cy="696.9" r="0.63" fill="#e8eefc" fill-opacity="0.340"/><circle cx="1867.0" cy="567.1" r="0.46" fill="#e8eefc" fill-opacity="0.454"/><circle cx="1937.9" cy="567.3" r="0.82" fill="#e8eefc" fill-opacity="0.456"/><circle cx="2398.6" cy="496.6" r="0.82" fill="#e8eefc" fill-opacity="0.182"/><circle cx="1356.7" cy="1269.9" r="0.75" fill="#e8eefc" fill-opacity="0.103"/><circle cx="637.7" cy="714.7" r="0.54" fill="#e8eefc" fill-opacity="0.335"/><circle cx="1238.9" cy="1165.8" r="1.20" fill="#e8eefc" fill-opacity="0.130"/><circle cx="2312.1" cy="400.4" r="1.52" fill="#e8eefc" fill-opacity="0.298"/><circle cx="1859.4" cy="596.9" r="1.04" fill="#e8eefc" fill-opacity="0.236"/><circle cx="859.5" cy="96.1" r="0.56" fill="#e8eefc" fill-opacity="0.298"/><circle cx="738.4" cy="333.8" r="1.52" fill="#e8eefc" fill-opacity="0.158"/><circle cx="331.9" cy="395.8" r="0.90" fill="#e8eefc" fill-opacity="0.487"/><circle cx="1284.7" cy="1159.8" r="0.91" fill="#e8eefc" fill-opacity="0.514"/><circle cx="1034.7" cy="908.6" r="0.94" fill="#e8eefc" fill-opacity="0.322"/><circle cx="1712.0" cy="1316.2" r="1.30" fill="#e8eefc" fill-opacity="0.204"/><circle cx="910.0" cy="950.5" r="0.97" fill="#e8eefc" fill-opacity="0.175"/><circle cx="1549.2" cy="890.1" r="0.74" fill="#e8eefc" fill-opacity="0.261"/><circle cx="453.9" cy="757.7" r="0.88" fill="#e8eefc" fill-opacity="0.428"/><circle cx="1599.2" cy="681.4" r="1.19" fill="#e8eefc" fill-opacity="0.430"/><circle cx="169.0" cy="1055.4" r="1.07" fill="#e8eefc" fill-opacity="0.227"/><circle cx="517.5" cy="893.8" r="0.57" fill="#e8eefc" fill-opacity="0.474"/><circle cx="454.8" cy="57.5" r="1.54" fill="#e8eefc" fill-opacity="0.382"/><circle cx="668.5" cy="1140.5" r="1.44" fill="#e8eefc" fill-opacity="0.336"/><circle cx="2182.2" cy="1228.1" r="1.54" fill="#e8eefc" fill-opacity="0.471"/><circle cx="790.9" cy="1089.0" r="0.67" fill="#e8eefc" fill-opacity="0.315"/><circle cx="159.5" cy="1002.7" r="0.89" fill="#e8eefc" fill-opacity="0.251"/><circle cx="153.5" cy="788.9" r="1.53" fill="#e8eefc" fill-opacity="0.129"/><circle cx="2262.0" cy="821.5" r="0.91" fill="#e8eefc" fill-opacity="0.463"/><circle cx="975.1" cy="1096.6" r="1.58" fill="#e8eefc" fill-opacity="0.096"/><circle cx="2047.0" cy="831.1" r="1.00" fill="#e8eefc" fill-opacity="0.149"/><circle cx="1729.2" cy="60.5" r="1.19" fill="#e8eefc" fill-opacity="0.254"/><circle cx="2328.2" cy="719.0" r="0.86" fill="#e8eefc" fill-opacity="0.173"/><circle cx="1757.6" cy="1141.9" r="0.92" fill="#e8eefc" fill-opacity="0.409"/><circle cx="474.7" cy="430.6" r="0.78" fill="#e8eefc" fill-opacity="0.295"/><circle cx="1184.7" cy="1263.8" r="0.99" fill="#e8eefc" fill-opacity="0.486"/><circle cx="33.8" cy="400.7" r="1.27" fill="#e8eefc" fill-opacity="0.452"/><circle cx="1556.7" cy="833.0" r="0.93" fill="#e8eefc" fill-opacity="0.481"/><circle cx="184.1" cy="962.1" r="1.30" fill="#e8eefc" fill-opacity="0.149"/><circle cx="983.3" cy="675.9" r="1.21" fill="#e8eefc" fill-opacity="0.178"/><circle cx="1006.7" cy="230.7" r="1.43" fill="#e8eefc" fill-opacity="0.477"/><circle cx="1093.1" cy="1266.3" r="0.53" fill="#e8eefc" fill-opacity="0.108"/><circle cx="1193.6" cy="576.1" r="0.94" fill="#e8eefc" fill-opacity="0.217"/><circle cx="2188.2" cy="1240.2" r="1.11" fill="#e8eefc" fill-opacity="0.202"/><circle cx="1208.2" cy="748.7" r="0.94" fill="#e8eefc" fill-opacity="0.295"/><circle cx="1957.7" cy="1088.1" r="1.55" fill="#e8eefc" fill-opacity="0.477"/><circle cx="1416.1" cy="933.6" r="1.54" fill="#e8eefc" fill-opacity="0.432"/><circle cx="27.2" cy="528.3" r="0.76" fill="#e8eefc" fill-opacity="0.110"/><circle cx="1984.8" cy="1279.6" r="0.57" fill="#e8eefc" fill-opacity="0.511"/><circle cx="676.2" cy="1240.3" r="1.11" fill="#e8eefc" fill-opacity="0.357"/><circle cx="1381.4" cy="323.8" r="0.79" fill="#e8eefc" fill-opacity="0.098"/><circle cx="1043.3" cy="1219.6" r="1.07" fill="#e8eefc" fill-opacity="0.414"/><circle cx="2101.3" cy="1159.2" r="0.81" fill="#e8eefc" fill-opacity="0.524"/><circle cx="1309.5" cy="559.4" r="1.40" fill="#e8eefc" fill-opacity="0.539"/><circle cx="1619.7" cy="423.6" r="0.42" fill="#e8eefc" fill-opacity="0.409"/><circle cx="2050.8" cy="895.5" r="1.29" fill="#e8eefc" fill-opacity="0.217"/><circle cx="54.4" cy="797.2" r="1.54" fill="#e8eefc" fill-opacity="0.201"/><circle cx="1452.2" cy="338.3" r="0.67" fill="#e8eefc" fill-opacity="0.198"/><circle cx="710.2" cy="1333.0" r="0.65" fill="#e8eefc" fill-opacity="0.370"/><circle cx="10.9" cy="136.6" r="1.19" fill="#e8eefc" fill-opacity="0.478"/><circle cx="1782.2" cy="240.6" r="1.29" fill="#e8eefc" fill-opacity="0.283"/><circle cx="1002.6" cy="749.1" r="1.54" fill="#e8eefc" fill-opacity="0.455"/><circle cx="606.2" cy="338.2" r="0.95" fill="#e8eefc" fill-opacity="0.189"/><circle cx="1746.4" cy="9.7" r="1.32" fill="#e8eefc" fill-opacity="0.454"/><circle cx="601.3" cy="638.9" r="1.14" fill="#e8eefc" fill-opacity="0.252"/><circle cx="2381.9" cy="154.5" r="1.36" fill="#e8eefc" fill-opacity="0.239"/><circle cx="815.1" cy="1170.1" r="1.37" fill="#e8eefc" fill-opacity="0.531"/><circle cx="1170.7" cy="122.9" r="1.01" fill="#e8eefc" fill-opacity="0.254"/><circle cx="872.5" cy="541.6" r="1.23" fill="#e8eefc" fill-opacity="0.226"/><circle cx="895.4" cy="972.4" r="1.17" fill="#e8eefc" fill-opacity="0.361"/><circle cx="164.5" cy="846.7" r="1.28" fill="#e8eefc" fill-opacity="0.175"/><circle cx="1076.8" cy="554.0" r="0.56" fill="#e8eefc" fill-opacity="0.301"/><circle cx="180.4" cy="368.6" r="1.23" fill="#e8eefc" fill-opacity="0.406"/><circle cx="1396.5" cy="74.1" r="1.52" fill="#e8eefc" fill-opacity="0.313"/><circle cx="642.1" cy="281.3" r="0.77" fill="#e8eefc" fill-opacity="0.154"/><circle cx="1062.8" cy="546.8" r="1.56" fill="#e8eefc" fill-opacity="0.362"/><circle cx="1263.7" cy="269.7" r="0.93" fill="#e8eefc" fill-opacity="0.495"/><circle cx="848.9" cy="656.2" r="1.52" fill="#e8eefc" fill-opacity="0.293"/><circle cx="154.3" cy="1246.8" r="1.22" fill="#e8eefc" fill-opacity="0.319"/><circle cx="394.1" cy="555.3" r="0.59" fill="#e8eefc" fill-opacity="0.221"/><circle cx="785.7" cy="709.6" r="0.50" fill="#e8eefc" fill-opacity="0.124"/><circle cx="1444.8" cy="589.8" r="0.99" fill="#e8eefc" fill-opacity="0.550"/><circle cx="725.4" cy="1115.6" r="1.45" fill="#e8eefc" fill-opacity="0.235"/><circle cx="1169.3" cy="619.8" r="0.52" fill="#e8eefc" fill-opacity="0.168"/><circle cx="915.4" cy="684.1" r="0.83" fill="#e8eefc" fill-opacity="0.533"/><circle cx="2153.0" cy="443.3" r="0.72" fill="#e8eefc" fill-opacity="0.508"/><circle cx="2008.8" cy="858.9" r="0.41" fill="#e8eefc" fill-opacity="0.224"/><circle cx="1346.8" cy="476.2" r="0.95" fill="#e8eefc" fill-opacity="0.275"/><circle cx="1193.0" cy="1169.6" r="1.56" fill="#e8eefc" fill-opacity="0.142"/><circle cx="1512.4" cy="540.3" r="0.86" fill="#e8eefc" fill-opacity="0.232"/><circle cx="1002.7" cy="193.3" r="1.02" fill="#e8eefc" fill-opacity="0.110"/><circle cx="293.3" cy="310.0" r="0.99" fill="#e8eefc" fill-opacity="0.121"/><circle cx="1580.1" cy="766.0" r="0.72" fill="#e8eefc" fill-opacity="0.204"/><circle cx="577.0" cy="477.2" r="0.78" fill="#e8eefc" fill-opacity="0.310"/><circle cx="938.5" cy="1263.3" r="0.86" fill="#e8eefc" fill-opacity="0.425"/><circle cx="146.8" cy="56.0" r="1.09" fill="#e8eefc" fill-opacity="0.281"/><circle cx="1069.0" cy="807.4" r="0.68" fill="#e8eefc" fill-opacity="0.504"/><circle cx="252.9" cy="154.0" r="0.80" fill="#e8eefc" fill-opacity="0.288"/><circle cx="202.3" cy="368.3" r="1.04" fill="#e8eefc" fill-opacity="0.321"/><circle cx="2086.9" cy="162.3" r="1.19" fill="#e8eefc" fill-opacity="0.338"/><circle cx="1246.5" cy="76.8" r="1.34" fill="#e8eefc" fill-opacity="0.537"/><circle cx="682.6" cy="455.8" r="1.12" fill="#e8eefc" fill-opacity="0.495"/><circle cx="2371.9" cy="281.3" r="0.42" fill="#e8eefc" fill-opacity="0.198"/><circle cx="1361.4" cy="1004.9" r="0.59" fill="#e8eefc" fill-opacity="0.168"/><circle cx="786.2" cy="818.3" r="1.35" fill="#e8eefc" fill-opacity="0.163"/><circle cx="133.3" cy="814.6" r="1.28" fill="#e8eefc" fill-opacity="0.317"/><circle cx="2178.7" cy="467.5" r="0.57" fill="#e8eefc" fill-opacity="0.390"/><circle cx="1904.9" cy="931.8" r="1.38" fill="#e8eefc" fill-opacity="0.095"/><circle cx="358.7" cy="1218.5" r="1.46" fill="#e8eefc" fill-opacity="0.179"/><circle cx="1953.2" cy="1184.9" r="0.87" fill="#e8eefc" fill-opacity="0.270"/><circle cx="196.2" cy="980.4" r="0.91" fill="#e8eefc" fill-opacity="0.435"/><circle cx="767.5" cy="526.0" r="0.96" fill="#e8eefc" fill-opacity="0.185"/><circle cx="1994.7" cy="574.3" r="1.51" fill="#e8eefc" fill-opacity="0.180"/><circle cx="515.8" cy="1070.5" r="1.37" fill="#e8eefc" fill-opacity="0.377"/><circle cx="1739.4" cy="934.3" r="0.98" fill="#e8eefc" fill-opacity="0.245"/><circle cx="653.9" cy="256.9" r="0.41" fill="#e8eefc" fill-opacity="0.543"/><circle cx="41.6" cy="821.0" r="0.43" fill="#e8eefc" fill-opacity="0.237"/><circle cx="1780.2" cy="844.4" r="0.45" fill="#e8eefc" fill-opacity="0.355"/><circle cx="2021.4" cy="1206.7" r="0.72" fill="#e8eefc" fill-opacity="0.189"/><circle cx="1316.3" cy="760.6" r="1.22" fill="#e8eefc" fill-opacity="0.507"/><circle cx="1947.0" cy="237.6" r="1.10" fill="#e8eefc" fill-opacity="0.253"/><circle cx="2026.3" cy="287.8" r="1.16" fill="#e8eefc" fill-opacity="0.482"/><circle cx="24.2" cy="797.5" r="1.20" fill="#e8eefc" fill-opacity="0.124"/><circle cx="905.8" cy="323.1" r="1.51" fill="#e8eefc" fill-opacity="0.322"/><circle cx="876.5" cy="97.1" r="1.38" fill="#e8eefc" fill-opacity="0.170"/><circle cx="567.2" cy="929.9" r="1.10" fill="#e8eefc" fill-opacity="0.486"/><circle cx="1666.0" cy="1101.9" r="1.43" fill="#e8eefc" fill-opacity="0.401"/><circle cx="307.1" cy="1293.8" r="1.09" fill="#e8eefc" fill-opacity="0.396"/><circle cx="1181.4" cy="1227.0" r="0.42" fill="#e8eefc" fill-opacity="0.289"/><circle cx="600.6" cy="1282.4" r="0.49" fill="#e8eefc" fill-opacity="0.134"/><circle cx="84.1" cy="251.8" r="0.63" fill="#e8eefc" fill-opacity="0.307"/><circle cx="1691.7" cy="1122.2" r="0.44" fill="#e8eefc" fill-opacity="0.310"/><circle cx="1582.9" cy="1080.5" r="1.22" fill="#e8eefc" fill-opacity="0.210"/><circle cx="784.2" cy="68.9" r="1.12" fill="#e8eefc" fill-opacity="0.092"/><circle cx="995.4" cy="825.1" r="1.22" fill="#e8eefc" fill-opacity="0.083"/><circle cx="2070.1" cy="614.0" r="0.52" fill="#e8eefc" fill-opacity="0.266"/><circle cx="1228.6" cy="283.4" r="1.32" fill="#e8eefc" fill-opacity="0.101"/><circle cx="1784.5" cy="1307.1" r="0.42" fill="#e8eefc" fill-opacity="0.253"/><circle cx="1183.9" cy="287.0" r="1.50" fill="#e8eefc" fill-opacity="0.486"/><circle cx="1871.5" cy="1034.3" r="1.59" fill="#e8eefc" fill-opacity="0.263"/><circle cx="1896.0" cy="445.2" r="0.63" fill="#e8eefc" fill-opacity="0.175"/><circle cx="1908.3" cy="918.7" r="1.15" fill="#e8eefc" fill-opacity="0.139"/><circle cx="1871.0" cy="1135.8" r="1.42" fill="#e8eefc" fill-opacity="0.125"/><circle cx="2016.5" cy="959.5" r="0.41" fill="#e8eefc" fill-opacity="0.122"/><circle cx="1826.2" cy="887.5" r="0.86" fill="#e8eefc" fill-opacity="0.404"/><circle cx="24.7" cy="1268.7" r="0.68" fill="#e8eefc" fill-opacity="0.324"/><circle cx="134.6" cy="1049.5" r="0.91" fill="#e8eefc" fill-opacity="0.323"/><circle cx="133.4" cy="401.9" r="1.12" fill="#e8eefc" fill-opacity="0.440"/><circle cx="204.4" cy="1235.2" r="0.67" fill="#e8eefc" fill-opacity="0.468"/><circle cx="2017.5" cy="1088.7" r="1.57" fill="#e8eefc" fill-opacity="0.433"/><circle cx="1437.3" cy="75.8" r="1.17" fill="#e8eefc" fill-opacity="0.251"/><circle cx="606.1" cy="411.0" r="1.31" fill="#e8eefc" fill-opacity="0.300"/><circle cx="479.6" cy="676.6" r="0.63" fill="#e8eefc" fill-opacity="0.357"/><circle cx="658.4" cy="785.2" r="1.49" fill="#e8eefc" fill-opacity="0.485"/><circle cx="795.8" cy="394.3" r="0.61" fill="#e8eefc" fill-opacity="0.214"/><circle cx="655.8" cy="226.2" r="0.46" fill="#e8eefc" fill-opacity="0.377"/><circle cx="776.7" cy="706.3" r="0.91" fill="#e8eefc" fill-opacity="0.323"/><circle cx="684.6" cy="1144.7" r="0.84" fill="#e8eefc" fill-opacity="0.230"/><circle cx="817.9" cy="361.5" r="0.53" fill="#e8eefc" fill-opacity="0.369"/><circle cx="1336.0" cy="246.3" r="1.34" fill="#e8eefc" fill-opacity="0.323"/><circle cx="2103.9" cy="528.8" r="0.99" fill="#e8eefc" fill-opacity="0.119"/><circle cx="1425.2" cy="510.2" r="0.52" fill="#e8eefc" fill-opacity="0.146"/><circle cx="1742.6" cy="1035.1" r="1.18" fill="#e8eefc" fill-opacity="0.485"/><circle cx="286.1" cy="1337.9" r="0.71" fill="#e8eefc" fill-opacity="0.138"/><circle cx="2196.6" cy="923.5" r="1.07" fill="#e8eefc" fill-opacity="0.418"/><circle cx="1285.3" cy="803.5" r="1.37" fill="#c8d4f0" fill-opacity="0.428"/><circle cx="1515.7" cy="771.7" r="1.63" fill="#c8d4f0" fill-opacity="0.293"/><circle cx="153.9" cy="571.2" r="2.07" fill="#c8d4f0" fill-opacity="0.403"/><circle cx="1100.6" cy="412.0" r="2.20" fill="#c8d4f0" fill-opacity="0.188"/><circle cx="2206.9" cy="883.9" r="1.69" fill="#c8d4f0" fill-opacity="0.278"/><circle cx="534.5" cy="976.4" r="2.34" fill="#c8d4f0" fill-opacity="0.430"/><circle cx="1517.9" cy="772.8" r="1.29" fill="#c8d4f0" fill-opacity="0.190"/><circle cx="977.6" cy="1019.7" r="1.56" fill="#c8d4f0" fill-opacity="0.254"/><circle cx="1115.3" cy="385.8" r="2.19" fill="#c8d4f0" fill-opacity="0.427"/><circle cx="326.2" cy="1009.2" r="2.25" fill="#c8d4f0" fill-opacity="0.153"/><circle cx="1461.4" cy="40.7" r="1.38" fill="#c8d4f0" fill-opacity="0.380"/><circle cx="1154.8" cy="429.3" r="1.44" fill="#c8d4f0" fill-opacity="0.158"/><circle cx="1172.2" cy="269.0" r="1.85" fill="#c8d4f0" fill-opacity="0.254"/><circle cx="57.5" cy="1002.8" r="2.40" fill="#c8d4f0" fill-opacity="0.298"/><circle cx="1350.9" cy="100.4" r="1.85" fill="#c8d4f0" fill-opacity="0.157"/><circle cx="429.0" cy="1343.1" r="1.39" fill="#c8d4f0" fill-opacity="0.257"/><circle cx="2194.9" cy="1189.8" r="2.38" fill="#c8d4f0" fill-opacity="0.426"/><circle cx="225.1" cy="754.5" r="1.89" fill="#c8d4f0" fill-opacity="0.359"/><circle cx="2335.7" cy="924.7" r="1.50" fill="#c8d4f0" fill-opacity="0.400"/><circle cx="404.3" cy="380.8" r="1.49" fill="#c8d4f0" fill-opacity="0.343"/><circle cx="2088.4" cy="890.1" r="1.31" fill="#c8d4f0" fill-opacity="0.266"/><circle cx="1050.4" cy="679.6" r="1.87" fill="#c8d4f0" fill-opacity="0.390"/><circle cx="1243.4" cy="543.2" r="2.22" fill="#c8d4f0" fill-opacity="0.363"/><circle cx="1974.8" cy="248.4" r="2.33" fill="#c8d4f0" fill-opacity="0.288"/><circle cx="1959.1" cy="414.4" r="2.24" fill="#c8d4f0" fill-opacity="0.226"/><circle cx="2319.5" cy="989.2" r="1.70" fill="#c8d4f0" fill-opacity="0.343"/><circle cx="287.9" cy="330.1" r="2.15" fill="#c8d4f0" fill-opacity="0.268"/><circle cx="2392.3" cy="1303.9" r="2.31" fill="#c8d4f0" fill-opacity="0.213"/><circle cx="1262.6" cy="479.4" r="1.45" fill="#c8d4f0" fill-opacity="0.251"/><circle cx="2221.7" cy="445.3" r="2.15" fill="#c8d4f0" fill-opacity="0.193"/><circle cx="1179.9" cy="74.7" r="1.62" fill="#c8d4f0" fill-opacity="0.269"/><circle cx="1795.7" cy="672.1" r="1.86" fill="#c8d4f0" fill-opacity="0.344"/><circle cx="1910.2" cy="1325.9" r="1.29" fill="#c8d4f0" fill-opacity="0.304"/><circle cx="1214.9" cy="849.7" r="1.69" fill="#c8d4f0" fill-opacity="0.271"/><circle cx="2333.7" cy="1332.5" r="1.91" fill="#c8d4f0" fill-opacity="0.184"/><circle cx="1829.7" cy="315.9" r="1.90" fill="#c8d4f0" fill-opacity="0.448"/><circle cx="2355.6" cy="105.0" r="1.94" fill="#c8d4f0" fill-opacity="0.170"/><circle cx="2031.8" cy="1294.3" r="1.80" fill="#c8d4f0" fill-opacity="0.264"/><circle cx="939.3" cy="414.3" r="2.18" fill="#c8d4f0" fill-opacity="0.289"/><circle cx="1895.2" cy="1333.6" r="1.46" fill="#c8d4f0" fill-opacity="0.322"/><circle cx="684.2" cy="98.1" r="1.90" fill="#c8d4f0" fill-opacity="0.152"/><circle cx="1557.2" cy="1262.0" r="1.33" fill="#c8d4f0" fill-opacity="0.213"/><circle cx="551.9" cy="712.9" r="1.79" fill="#c8d4f0" fill-opacity="0.161"/><circle cx="502.7" cy="146.5" r="1.53" fill="#c8d4f0" fill-opacity="0.350"/><circle cx="1733.2" cy="200.5" r="2.39" fill="#c8d4f0" fill-opacity="0.284"/><circle cx="747.4" cy="249.7" r="2.16" fill="#c8d4f0" fill-opacity="0.404"/><circle cx="835.7" cy="990.7" r="1.29" fill="#c8d4f0" fill-opacity="0.312"/><circle cx="1114.0" cy="149.5" r="1.96" fill="#c8d4f0" fill-opacity="0.359"/><circle cx="263.8" cy="858.4" r="2.01" fill="#c8d4f0" fill-opacity="0.236"/><circle cx="1250.5" cy="593.4" r="1.30" fill="#c8d4f0" fill-opacity="0.429"/><circle cx="1682.0" cy="1219.7" r="2.04" fill="#c8d4f0" fill-opacity="0.235"/><circle cx="911.5" cy="691.5" r="1.52" fill="#c8d4f0" fill-opacity="0.358"/><circle cx="1490.5" cy="1175.1" r="1.85" fill="#c8d4f0" fill-opacity="0.152"/><circle cx="2015.0" cy="176.9" r="2.15" fill="#c8d4f0" fill-opacity="0.239"/><circle cx="2329.1" cy="160.7" r="1.57" fill="#c8d4f0" fill-opacity="0.221"/><circle cx="360.6" cy="1328.5" r="1.93" fill="#c8d4f0" fill-opacity="0.441"/><circle cx="2349.7" cy="1008.5" r="2.34" fill="#c8d4f0" fill-opacity="0.383"/><circle cx="849.0" cy="1164.9" r="2.12" fill="#c8d4f0" fill-opacity="0.245"/><circle cx="2172.1" cy="686.8" r="1.68" fill="#c8d4f0" fill-opacity="0.336"/><circle cx="621.3" cy="1106.6" r="1.32" fill="#c8d4f0" fill-opacity="0.316"/><circle cx="596.7" cy="1005.5" r="2.14" fill="#c8d4f0" fill-opacity="0.408"/><circle cx="1878.7" cy="623.0" r="2.37" fill="#c8d4f0" fill-opacity="0.205"/><circle cx="2344.2" cy="473.4" r="1.28" fill="#c8d4f0" fill-opacity="0.320"/><circle cx="587.2" cy="143.7" r="1.29" fill="#c8d4f0" fill-opacity="0.233"/><circle cx="1930.7" cy="188.6" r="1.77" fill="#c8d4f0" fill-opacity="0.323"/><circle cx="2060.8" cy="856.6" r="2.12" fill="#c8d4f0" fill-opacity="0.242"/><circle cx="1728.6" cy="484.7" r="2.36" fill="#c8d4f0" fill-opacity="0.235"/><circle cx="866.0" cy="144.8" r="1.28" fill="#c8d4f0" fill-opacity="0.438"/><circle cx="49.3" cy="1223.3" r="2.19" fill="#c8d4f0" fill-opacity="0.332"/><circle cx="275.7" cy="1308.0" r="1.36" fill="#c8d4f0" fill-opacity="0.402"/><circle cx="870.0" cy="23.2" r="1.59" fill="#c8d4f0" fill-opacity="0.167"/><circle cx="565.3" cy="213.0" r="2.00" fill="#c8d4f0" fill-opacity="0.200"/><circle cx="945.1" cy="201.8" r="1.49" fill="#c8d4f0" fill-opacity="0.373"/><circle cx="1243.3" cy="413.7" r="2.15" fill="#c8d4f0" fill-opacity="0.371"/><circle cx="1551.8" cy="581.9" r="2.12" fill="#c8d4f0" fill-opacity="0.443"/><circle cx="2353.6" cy="16.1" r="1.24" fill="#c8d4f0" fill-opacity="0.349"/><circle cx="872.3" cy="687.7" r="1.67" fill="#c8d4f0" fill-opacity="0.286"/><circle cx="1569.4" cy="1289.4" r="1.60" fill="#c8d4f0" fill-opacity="0.190"/><circle cx="2367.3" cy="591.8" r="1.54" fill="#c8d4f0" fill-opacity="0.151"/><circle cx="1976.3" cy="546.5" r="2.25" fill="#c8d4f0" fill-opacity="0.424"/><circle cx="1359.5" cy="955.2" r="2.34" fill="#c8d4f0" fill-opacity="0.366"/><circle cx="1193.1" cy="781.3" r="2.24" fill="#c8d4f0" fill-opacity="0.210"/><circle cx="784.1" cy="865.9" r="1.67" fill="#c8d4f0" fill-opacity="0.219"/><circle cx="2233.7" cy="800.1" r="1.99" fill="#c8d4f0" fill-opacity="0.317"/><circle cx="1510.3" cy="16.1" r="2.32" fill="#c8d4f0" fill-opacity="0.168"/><circle cx="852.9" cy="920.0" r="2.13" fill="#c8d4f0" fill-opacity="0.387"/><circle cx="2187.3" cy="800.1" r="2.07" fill="#c8d4f0" fill-opacity="0.303"/><circle cx="2337.3" cy="275.3" r="2.20" fill="#c8d4f0" fill-opacity="0.415"/><circle cx="70.7" cy="764.7" r="1.25" fill="#c8d4f0" fill-opacity="0.381"/><circle cx="2276.9" cy="370.9" r="1.55" fill="#c8d4f0" fill-opacity="0.205"/></svg>